<?xml version="1.0" encoding="UTF-8"?>
<svg id="Camada_1" xmlns="http://www.w3.org/2000/svg" version="1.1" xmlns:xlink="http://www.w3.org/1999/xlink" viewBox="0 0 128 128">
  <!-- Generator: Adobe Illustrator 30.0.0, SVG Export Plug-In . SVG Version: 2.1.1 Build 123)  -->
  <defs>
    <style>
      .st0 {
        fill: #fff;
      }

      .st1 {
        fill: #db2a9d;
      }

      .st2 {
        fill: #363d52;
        stroke: #212532;
        stroke-width: 4px;
      }

      .st3 {
        fill: #414042;
      }
    </style>
  </defs>
  <path class="st2" d="M110.8,47.3c-1.8,2.8-3.6,5.5-5.7,8.2v32.1c-.1,27.9-82.2,27.9-82.2,0v-32.1c-2-2.6-3.9-5.3-5.7-8.2,2.4-4,5.1-7.6,8.4-10.9,2.9,1.4,5.7,2.9,8.3,4.8,2.7-2.5,5.7-4.6,8.9-6.5-.5-3.4-.7-6.9-.8-10.3,4-1.9,8.1-3.3,12.4-4.2,1.8,2.9,3.3,5.9,4.7,9,3.3-.5,6.6-.5,9.9,0,1.4-3.1,2.9-6.1,4.7-9,4.3.9,8.5,2.4,12.4,4.2,0,3.4-.3,6.9-.8,10.3,3.2,1.8,6.2,4,8.9,6.5,2.6-1.8,5.4-3.4,8.3-4.8,3.2,3.3,6,6.9,8.4,10.9Z"/>
  <g>
    <path class="st0" d="M105.1,80.3v3.3c-27.4,23.8-54.8,23.8-82.2,0v-3.3h82.2Z"/>
    <path class="st1" d="M91.6,84.8l-.5,7c-.1.7-.6,1.1-1.4,1.3l-16.4,1.1c-.8,0-1.4-.4-1.6-1.1l-1-6.6h-13.3l-1,6.6c-.3.7-.8,1.1-1.6,1.1l-16.4-1.1c-.8-.2-1.3-.6-1.4-1.3l-.5-7-13.5-1.2v3.9c0,27.9,82.1,27.9,82.2,0v-3.9l-13.5,1.2ZM102.4,36.4c-2.9,1.4-5.6,2.9-8.3,4.8-2.7-2.5-5.7-4.6-8.9-6.5.5-3.4.7-6.9.8-10.3-4-1.9-8.1-3.3-12.4-4.2-1.8,2.9-3.3,5.9-4.7,9-3.3-.5-6.6-.5-9.9,0-1.4-3.1-2.9-6.1-4.7-9-4.3.9-8.5,2.4-12.4,4.2,0,3.4.3,6.9.8,10.3-3.2,1.8-6.2,4-8.9,6.5-2.6-1.8-5.4-3.4-8.3-4.8-3.2,3.3-6,6.9-8.4,10.9,1.8,2.8,3.6,5.5,5.7,8.2v24.8l15.4,1.4c.8,0,1.3.5,1.5,1.4l.4,6.8,13.3,1,.8-6.2c.1-.7.6-1.2,1.5-1.5h16.4c.9.3,1.4.8,1.5,1.5l.8,6.2,13.3-1,.4-6.8c.2-.9.7-1.3,1.5-1.4l15.4-1.4v-24.8c2-2.6,3.9-5.3,5.7-8.2-2.4-4-5.1-7.6-8.4-10.9Z"/>
    <path class="st0" d="M61.1,72.9c0,3.4,5.9,3.4,5.9,0v-8.7c0-3.4-5.9-3.4-5.9,0v8.7Z"/>
    <circle class="st0" cx="85.5" cy="65.4" r="9.1"/>
    <circle class="st0" cx="42.5" cy="65.4" r="9.1"/>
  </g>
  <g>
    <circle class="st3" cx="43.3" cy="66.1" r="6.1"/>
    <circle class="st3" cx="84.7" cy="66.1" r="6.1"/>
  </g>
  <image width="165" height="113" transform="translate(140.5 23.8)" xlink:href="icon-1.png"/>
</svg>